<?xml version="1.0" encoding="UTF-8"?>
<svg width="184.32mm" height="117.28mm" version="1.1" viewBox="0 0 184.32 117.28" xmlns="http://www.w3.org/2000/svg" xmlns:cc="http://creativecommons.org/ns#" xmlns:dc="http://purl.org/dc/elements/1.1/" xmlns:rdf="http://www.w3.org/1999/02/22-rdf-syntax-ns#" xmlns:xlink="http://www.w3.org/1999/xlink">
 <defs>
  <linearGradient id="linearGradient843">
   <stop stop-color="#58b2dc" offset="0"/>
   <stop stop-color="#c1328e" offset="1"/>
  </linearGradient>
  <linearGradient id="linearGradient845" x1="18.143" x2="199.19" y1="75.406" y2="75.406" gradientTransform="matrix(1.018 0 0 1.1193 -1.5138 -9.2336)" gradientUnits="userSpaceOnUse" xlink:href="#linearGradient843"/>
  <linearGradient id="linearGradient854" x1="51.846" x2="158.12" y1="-62.271" y2="-62.271" gradientTransform="matrix(.71318 0 0 .71318 34.241 55.344)" gradientUnits="userSpaceOnUse" xlink:href="#linearGradient843"/>
 </defs>
 <metadata>
  <rdf:RDF>
   <cc:Work rdf:about="">
    <dc:format>image/svg+xml</dc:format>
    <dc:type rdf:resource="http://purl.org/dc/dcmitype/StillImage"/>
    <dc:title/>
   </cc:Work>
  </rdf:RDF>
 </metadata>
 <g transform="translate(-16.956 30.681)">
  <rect x="16.956" y="72.42" width="184.32" height="5.5" fill="url(#linearGradient845)" fill-rule="evenodd"/>
  <path d="m96.915 29.601c4.9795 15.626 20.087 19.428 27.059 19.804 7.5202 0.40459 15.482 1.7778 16.754-10.178 0.2844-5.0547 0.89725-9.4241 3.8038-15.824 2.4015-4.8509-2.0925-9.4042-2.0925-13.091 0-64.343-98.582-39.981-59.853 21.185 5.0955 8.0476-5.669 18.033-5.669 18.033" fill="none" stroke="url(#linearGradient854)" stroke-width="6"/>
  <g fill="#1c1c1c" stroke-width=".26458" aria-label="imprankster">
   <path d="m25.323 52.151q-1.4629 0-2.1944-0.6618-0.73146-0.69663-0.73146-1.9157t0.94044-2.0202q0.97528-0.83595 2.4034-0.83595 1.2888 0 2.0899 0.62696 0.80112 0.62696 0.80112 1.7764 0 1.3933-0.90561 2.2292-0.90561 0.80112-2.4034 0.80112zm-0.27865 18.704q-2.264 0-3.309-1.6022-1.0101-1.6022-1.0101-4.2494 0-1.5674 0.38314-4.0056 0.41798-2.473 1.0449-4.5977 0.31348-1.1146 0.83595-1.5326 0.52247-0.41798 1.6719-0.41798 1.7764 0 1.7764 1.1843 0 0.87078-0.6618 4.0404-0.83595 3.8314-0.83595 5.1899 0 1.0449 0.27865 1.6022 0.27865 0.5573 0.94045 0.5573 0.62696 0 1.5674-0.87078 0.94044-0.87078 2.5079-2.7517 0.41798-0.48764 0.94044-0.48764 0.45281 0 0.69663 0.41798 0.27865 0.41798 0.27865 1.1494 0 1.3933-0.6618 2.1595-3.4483 4.2146-6.4438 4.2146z"/>
   <path d="m31.801 70.856q-1.3236 0-1.8809-1.3933-0.52247-1.3933-0.52247-4.4584 0-4.5281 1.2888-8.6033 0.31348-1.0101 1.0101-1.4629 0.73146-0.48764 2.0202-0.48764 0.69663 0 0.97528 0.17416 0.27865 0.17416 0.27865 0.6618 0 0.5573-0.52247 2.5079-0.34831 1.3933-0.5573 2.4382-0.20899 1.0101-0.34831 2.5427 0.94044-2.7168 2.2292-4.5977 1.3236-1.8809 2.682-2.7865 1.3933-0.94044 2.6123-0.94044 1.2191 0 1.7067 0.5573 0.52247 0.5573 0.52247 1.7067 0 1.1146-0.66179 4.0404-0.27865 1.2539-0.38314 1.8809 1.7416-4.2842 3.8663-6.2348 2.1247-1.9506 3.9708-1.9506 2.264 0 2.264 2.264 0 1.3584-0.76629 4.9112-0.66179 3.0303-0.66179 4.0056 0 1.3933 1.0101 1.3933 0.69663 0 1.6371-0.83595 0.97528-0.87078 2.5775-2.7865 0.41798-0.48764 0.94044-0.48764 0.45281 0 0.69663 0.41798 0.27865 0.41798 0.27865 1.1494 0 1.3933-0.6618 2.1595-1.4977 1.8461-3.2393 3.0303-1.7067 1.1843-3.9011 1.1843-1.7764 0-2.682-1.0101-0.90561-1.0449-0.90561-2.9955 0-0.97528 0.48764-3.4831 0.45281-2.1944 0.45281-3.0303 0-0.5573-0.38314-0.5573-0.45281 0-1.2888 1.1843-0.83595 1.1494-1.6719 3.0652t-1.3584 4.0404q-0.38314 1.6719-0.90561 2.2292-0.48764 0.5573-1.6022 0.5573-1.1494 0-1.7416-1.0798-0.5573-1.1146-0.5573-2.682 0-1.3236 0.34831-3.8314 0.27865-2.2292 0.27865-2.9258 0-0.5573-0.38314-0.5573-0.52247 0-1.3236 1.2539-0.80112 1.2539-1.5674 3.2045-0.73146 1.9506-1.1843 3.8314-0.38314 1.6371-0.90561 2.2292-0.48764 0.5573-1.5674 0.5573z"/>
   <path d="m73.843 62.914q0.45281 0 0.69663 0.41798 0.27865 0.41798 0.27865 1.1494 0 1.3933-0.66179 2.1595-1.4977 1.8461-3.2393 3.0303-1.7067 1.1843-3.9011 1.1843-1.8461 0-2.9955-1.3236-1.9854 1.2888-4.1449 1.3236-0.45281 6.7224-2.055 11.216-1.6022 4.5281-4.7022 4.5281-1.8809 0-2.7865-1.3584t-0.90561-3.7618q0-3.4135 1.5674-7.9764 1.5674-4.5281 4.8416-9.9966 0-5.0854-0.06966-7.0708-0.03483-1.0101 0.80112-1.6022 0.83595-0.59213 2.0899-0.59213 0.73146 0 1.0449 0.31348 0.34831 0.27865 0.38314 1.1494 0 0.87078 0.03483 1.2888 1.1146-1.3933 2.1944-1.9854 1.0798-0.62696 2.2989-0.62696 1.9506 0 3.1696 1.5674 1.2539 1.5674 1.2539 4.1101 0 1.8461-0.59213 3.5876t-1.6371 3.1696q0.73146 0.20899 1.2191 0.20899 1.1494 0 2.1944-0.83595 1.0449-0.83595 2.682-2.7865 0.41798-0.48764 0.94044-0.48764zm-13.793 4.5977q1.2539-0.27865 2.2989-1.3584 1.0798-1.1146 1.7067-2.7168 0.62696-1.6371 0.62696-3.4135 0-1.0449-0.41798-1.5674-0.41798-0.5573-1.1146-0.5573-1.2539 0-3.0303 2.6472-0.03483 1.5326-0.03483 4.4932 0 1.6022-0.03483 2.473zm-6.6528 15.674q0.94044 0 1.5674-4.1101 0.62696-4.0753 0.80112-10.171-1.4977 3.4831-2.3685 6.6528-0.87078 3.1696-0.87078 5.3292 0 1.1146 0.27865 1.7067 0.24382 0.59213 0.59213 0.59213z"/>
   <path d="m74.469 70.856q-1.3236 0-1.8809-1.3933-0.52247-1.3933-0.52247-4.4584 0-4.5281 1.2888-8.6033 0.31348-1.0101 1.0101-1.4629 0.73146-0.48764 2.0202-0.48764 0.69663 0 0.97528 0.17416 0.27865 0.17416 0.27865 0.6618 0 0.5573-0.52247 2.5079-0.34831 1.3933-0.5573 2.4382t-0.34831 2.5775q1.1494-2.9955 2.5775-4.8764t2.7865-2.682q1.3933-0.80112 2.5427-0.80112 2.264 0 2.264 2.264 0 0.45281-0.31348 2.1944-0.27865 1.3933-0.27865 1.7416 0 1.2191 0.87078 1.2191 0.97528 0 2.5079-1.5326 0.45281-0.45281 0.94044-0.45281 0.45281 0 0.69663 0.41798 0.27865 0.38314 0.27865 1.0449 0 1.2888-0.69663 2.0202-0.97528 1.0101-2.2989 1.7416-1.2888 0.69663-2.7517 0.69663-1.8461 0-2.8213-0.94044-0.94044-0.94044-0.94044-2.5427 0-0.52247 0.10449-1.0449 0.06966-0.69663 0.06966-0.94044 0-0.5573-0.38314-0.5573-0.52247 0-1.3933 1.1843-0.83595 1.1494-1.6719 3.0652t-1.3584 4.0404q-0.38314 1.6371-0.90561 2.2292-0.48764 0.5573-1.5674 0.5573z"/>
   <path d="m92.129 70.856q-2.1595 0-3.4483-1.5674-1.2888-1.5674-1.2888-4.1101 0-2.7865 1.2888-5.2595 1.2888-2.5079 3.4135-4.0056 2.1595-1.5326 4.5629-1.5326 0.76629 0 1.0101 0.31348 0.27865 0.27865 0.45281 1.0449 0.73146-0.13932 1.5326-0.13932 1.7067 0 1.7067 1.2191 0 0.73146-0.52247 3.4831-0.80112 4.0056-0.80112 5.573 0 0.52247 0.24382 0.83595 0.27865 0.31348 0.69662 0.31348 0.6618 0 1.6022-0.83595 0.94045-0.87078 2.5427-2.7865 0.41797-0.48764 0.94044-0.48764 0.45281 0 0.69663 0.41798 0.27865 0.41798 0.27865 1.1494 0 1.3933-0.6618 2.1595-1.4281 1.7764-3.0303 2.9955-1.6022 1.2191-3.1 1.2191-1.1494 0-2.1247-0.76629-0.94044-0.80112-1.4281-2.1595-1.8112 2.9258-4.5629 2.9258zm1.2539-3.518q0.76629 0 1.4629-0.90561 0.69663-0.90561 1.0101-2.4034l1.2888-6.409q-1.4629 0.03483-2.7168 1.1146-1.2191 1.0449-1.9506 2.7865-0.73146 1.7416-0.73146 3.6921 0 1.0798 0.41798 1.6022 0.45281 0.52247 1.2191 0.52247z"/>
   <path d="m106.69 70.856q-1.3236 0-1.8809-1.3933-0.52247-1.3933-0.52247-4.4584 0-4.5281 1.2888-8.6033 0.31349-1.0101 1.0101-1.4629 0.73146-0.48764 2.0202-0.48764 0.69662 0 0.97527 0.17416 0.27865 0.17416 0.27865 0.6618 0 0.5573-0.52247 2.5079-0.34831 1.3933-0.5573 2.4382-0.20898 1.0449-0.34831 2.5775 1.1494-2.9955 2.5775-4.8764 1.4281-1.8809 2.7865-2.682 1.3932-0.80112 2.5427-0.80112 2.264 0 2.264 2.264 0 1.3584-0.76629 4.9112-0.66179 3.0303-0.66179 4.0056 0 1.3933 1.0101 1.3933 0.69663 0 1.6371-0.83595 0.97527-0.87078 2.5775-2.7865 0.41798-0.48764 0.94045-0.48764 0.4528 0 0.69662 0.41798 0.27865 0.41798 0.27865 1.1494 0 1.3933-0.66179 2.1595-1.4978 1.8461-3.2393 3.0303-1.7067 1.1843-3.9011 1.1843-1.7764 0-2.682-1.0101-0.90561-1.0449-0.90561-2.9955 0-0.97528 0.48764-3.4831 0.4528-2.1944 0.4528-3.0303 0-0.5573-0.38314-0.5573-0.45281 0-1.2888 1.1843-0.80112 1.1494-1.6719 3.0652-0.83595 1.9157-1.3584 4.0404-0.38315 1.6371-0.90562 2.2292-0.48763 0.5573-1.5674 0.5573z"/>
   <path d="m141.62 62.914q0.45281 0 0.69663 0.41798 0.27865 0.41798 0.27865 1.1494 0 1.3933-0.6618 2.1595-1.5674 1.9157-3.1696 3.0652t-3.7966 1.1494q-2.682 0-4.3191-1.5326-1.6371-1.5326-1.6371-4.0753 0-1.3584 1.3932-1.9506 1.5326-0.6618 2.1944-1.3933 0.66179-0.76629 0.66179-1.8461 0-0.62696-0.27865-0.94044-0.24382-0.31348-0.62696-0.31348-0.94045 0-2.0899 1.3584-1.1146 1.3584-2.0899 3.518-0.97528 2.1247-1.5326 4.3887-0.38314 1.6371-0.90561 2.2292-0.48764 0.5573-1.5674 0.5573t-1.6022-0.76629q-0.48764-0.80112-0.66179-2.4382-0.17416-1.6371-0.17416-4.8067 0-5.364 1.0798-11.181 1.1146-5.8168 3.2393-9.7528 2.1595-3.9708 5.155-3.9708 1.6022 0 2.5775 1.3933 1.0101 1.3584 1.0101 3.5528 0 3.518-2.055 7.3146-2.055 3.7618-6.6876 8.8123-0.10449 1.8112-0.10449 3.7269 1.6719-4.3539 3.8314-6.3045 2.1595-1.9854 4.0404-1.9854 1.7416 0 2.7865 1.1843 1.0798 1.1843 1.0798 2.9258 0 1.9157-0.97528 3.518-0.97528 1.6022-3.3438 2.8562 0.13933 0.94044 0.83596 1.5326 0.73145 0.5573 1.7416 0.5573 1.0798 0 2.0899-0.83595 1.0101-0.83595 2.6472-2.7865 0.41797-0.48764 0.94044-0.48764zm-11.146-21.526q-0.62697 0-1.3933 1.8112-0.76628 1.7764-1.4977 4.8416-0.69663 3.0303-1.1494 6.6179 2.1595-2.5427 3.5528-5.5382 1.4281-2.9955 1.4281-5.4337 0-1.1146-0.24382-1.7067t-0.69662-0.59213z"/>
   <path d="m146.26 71.622q-1.8112 0-2.7865-0.83595-0.94044-0.83595-0.94044-1.8809 0-0.90561 0.66179-1.5674 0.6618-0.66179 1.9506-0.66179 0.4528 0 1.0449 0.10449 0.62696 0.06966 0.94044 0.10449-0.0348-0.90561-0.41798-1.7067-0.34831-0.80112-0.90561-1.5326-0.5573-0.76629-1.0449-1.3236-1.0798 2.055-2.1595 3.4135-1.0449 1.3584-2.2989 2.5775-0.62697 0.62696-1.3236 0.62696-0.5573 0-0.90562-0.38314-0.34831-0.41798-0.34831-1.0101 0-0.69663 0.48764-1.2888l0.4528-0.5573q1.9157-2.3685 2.891-3.9011 0.59213-1.0101 1.3932-2.682 0.80112-1.7067 1.5674-3.518 0.6618-1.5326 2.7517-1.5326 0.97527 0 1.3584 0.17416 0.38314 0.17416 0.38314 0.5573 0 0.20899-0.13932 0.66179-0.13933 0.45281-0.38315 0.90561-0.62696 1.2539-0.62696 2.1247 0 0.52247 0.34831 1.1494 0.38314 0.62696 1.1494 1.5674 1.1146 1.4629 1.6719 2.5079 0.59213 1.0101 0.59213 2.2292 0 0.34831-0.0697 0.97528 1.7067-0.6618 4.0056-3.518 0.41798-0.48764 0.94045-0.48764 0.45281 0 0.69663 0.41798 0.27865 0.41798 0.27865 1.1494 0 1.3236-0.6618 2.1595-1.7416 2.1595-3.3438 2.9607-1.5674 0.76629-3.9011 0.83595-1.3932 1.1843-3.309 1.1843z"/>
   <path d="m170.19 62.914q0.4528 0 0.69662 0.41798 0.27865 0.41798 0.27865 1.1494 0 1.3933-0.66179 2.1595-1.4978 1.8461-3.2742 3.0303-1.7764 1.1843-4.0753 1.1843-7.1056 0-7.1056-9.9966 0-1.5326 0.10449-3.1h-1.3584q-1.0449 0-1.4281-0.38314-0.34832-0.38314-0.34832-1.2191 0-1.9506 1.5674-1.9506h1.9854q0.59213-3.8314 1.8112-7.0011 1.2191-3.1696 2.9258-5.0505 1.7416-1.8809 3.727-1.8809 1.4629 0 2.2989 1.2888t0.83595 3.2393q0 5.3989-4.5281 9.4045h3.9011q0.5573 0 0.80112 0.24382t0.24382 0.90561q0 2.4034-3.9359 2.4034h-4.2494q-0.0697 1.7416-0.0697 2.7168 0 3.6225 0.83595 5.0854 0.87078 1.4629 2.7168 1.4629 1.4978 0 2.6472-0.90561t2.7168-2.7168q0.41798-0.48764 0.94045-0.48764zm-6.0955-19.297q-0.52247 0-1.1843 1.3236-0.62696 1.2888-1.2191 3.6225-0.5573 2.2989-0.94045 5.1202 2.055-1.7764 3.0652-3.9708 1.0449-2.2292 1.0449-4.0404 0-2.055-0.76629-2.055z"/>
   <path d="m183.87 62.914q0.45281 0 0.69663 0.41798 0.27865 0.41798 0.27865 1.1494 0 1.3933-0.6618 2.1595-1.2888 1.5674-3.6573 2.891-2.3337 1.3236-5.0157 1.3236-3.6573 0-5.6775-1.9854-2.0202-1.9854-2.0202-5.4337 0-2.4034 1.0101-4.4584 1.0101-2.0899 2.7865-3.309 1.8112-1.2191 4.0753-1.2191 2.0202 0 3.2393 1.2191 1.2191 1.1843 1.2191 3.2393 0 2.4034-1.7416 4.1449-1.7067 1.7067-5.8168 2.7168 0.87078 1.6022 3.309 1.6022 1.5674 0 3.5528-1.0798 2.0202-1.1146 3.4831-2.891 0.41798-0.48764 0.94045-0.48764zm-8.7775-5.0505q-1.2888 0-2.1944 1.4977-0.87078 1.4977-0.87078 3.6225v0.06966q2.055-0.48764 3.2393-1.4629t1.1843-2.264q0-0.6618-0.38314-1.0449-0.34831-0.41798-0.97528-0.41798z"/>
   <path d="m196.1 59.222q0.76628 0 1.2888 0.5573 0.5573 0.52247 0.5573 1.3236 0 0.45281-0.20898 0.97528-0.5573 1.2888-1.5674 2.1595-1.0101 0.87078-2.2292 0.87078-0.97528 0-1.6719-0.69663-0.66179-0.69663-0.66179-1.8809 0-0.6618 0.0697-1.4281 0.0697-0.5573 0.0697-0.76629 0-0.27865-0.13932-0.41798-0.1045-0.13932-0.27865-0.13932-0.48764 0-1.3236 1.1843-0.83595 1.1494-1.6719 3.0652-0.83596 1.9157-1.3584 4.0404-0.38315 1.6719-0.87079 2.2292t-1.6022 0.5573q-1.3236 0-1.8809-1.3933-0.52247-1.3933-0.52247-4.4584 0-4.5281 1.2888-8.6033 0.31348-1.0101 1.0101-1.4629 0.73146-0.48764 2.0202-0.48764 0.69663 0 0.97528 0.17416 0.27865 0.17416 0.27865 0.6618 0 0.5573-0.52247 2.5079-0.34831 1.3933-0.5573 2.4382t-0.34831 2.5775q1.1494-2.9955 2.5775-4.8764 1.4281-1.8809 2.7865-2.682t2.473-0.80112q1.0101 0 1.5326 0.59213 0.5573 0.5573 0.5573 1.6719 0 0.6618-0.38315 2.5079z"/>
  </g>
 </g>
</svg>
