<?xml version="1.0" encoding="UTF-8"?>
<svg width="116.79mm" height="48.59mm" version="1.1" viewBox="0 0 116.79 48.59" xmlns="http://www.w3.org/2000/svg" xmlns:cc="http://creativecommons.org/ns#" xmlns:dc="http://purl.org/dc/elements/1.1/" xmlns:rdf="http://www.w3.org/1999/02/22-rdf-syntax-ns#">
 <defs>
  <linearGradient id="linearGradient845" x1="18.143" x2="199.19" y1="75.406" y2="75.406" gradientTransform="matrix(.64509 0 0 1.1193 -11.704 -51.984)" gradientUnits="userSpaceOnUse">
   <stop stop-color="#ed362d" offset="0"/>
   <stop stop-color="#ed2dcd" offset="1"/>
  </linearGradient>
 </defs>
 <metadata>
  <rdf:RDF>
   <cc:Work rdf:about="">
    <dc:format>image/svg+xml</dc:format>
    <dc:type rdf:resource="http://purl.org/dc/dcmitype/StillImage"/>
    <dc:title/>
   </cc:Work>
  </rdf:RDF>
 </metadata>
 <rect x="-8.2397e-7" y="29.67" width="116.79" height="5.5" fill="url(#linearGradient845)" fill-rule="evenodd"/>
 <g transform="translate(-47.814,-8.0895)" fill="#fffffb" stroke-width=".26458" aria-label="my blog">
  <path d="m55.573 41.005q-1.3236 0-1.8809-1.3932-0.52246-1.3932-0.52246-4.4584 0-4.528 1.2887-8.6033 0.31348-1.0101 1.0101-1.4629 0.73145-0.48763 2.0202-0.48763 0.69662 0 0.97527 0.17416t0.27865 0.66179q0 0.5573-0.52246 2.5078-0.34831 1.3932-0.5573 2.4382-0.20899 1.0101-0.34831 2.5427 0.94044-2.7168 2.2292-4.5977 1.3236-1.8809 2.682-2.7865 1.3932-0.94044 2.6123-0.94044t1.7067 0.5573q0.52247 0.5573 0.52247 1.7067 0 1.1146-0.66179 4.0404-0.27865 1.2539-0.38314 1.8809 1.7416-4.2842 3.8662-6.2347t3.9707-1.9505q2.264 0 2.264 2.264 0 1.3584-0.76628 4.9112-0.66179 3.0303-0.66179 4.0056 0 1.3932 1.0101 1.3932 0.69662 0 1.6371-0.83594 0.97527-0.87078 2.5775-2.7865 0.41797-0.48763 0.94044-0.48763 0.4528 0 0.69662 0.41797 0.27865 0.41797 0.27865 1.1494 0 1.3932-0.66179 2.1595-1.4977 1.846-3.2393 3.0303-1.7067 1.1843-3.9011 1.1843-1.7764 0-2.682-1.0101-0.90561-1.0449-0.90561-2.9955 0-0.97527 0.48763-3.4831 0.4528-2.1944 0.4528-3.0303 0-0.5573-0.38314-0.5573-0.4528 0-1.2887 1.1843-0.83594 1.1494-1.6719 3.0651t-1.3584 4.0404q-0.38314 1.6719-0.90561 2.2292-0.48763 0.5573-1.6022 0.5573-1.1494 0-1.7416-1.0798-0.5573-1.1146-0.5573-2.682 0-1.3236 0.34831-3.8314 0.27865-2.2292 0.27865-2.9258 0-0.5573-0.38314-0.5573-0.52246 0-1.3236 1.2539t-1.5674 3.2045q-0.73145 1.9505-1.1843 3.8314-0.38314 1.6371-0.90561 2.2292-0.48763 0.5573-1.5674 0.5573z"/>
  <path d="m91.205 24.6q0.80111 0 1.1146 0.20899t0.31348 0.69662q0 0.83594-0.90561 5.9561-0.80111 4.9112-0.94044 5.8168-1.2887 8.9516-3.5528 14.176t-6.0258 5.2246q-1.7764 0-2.891-1.1146-1.1146-1.0798-1.1146-2.8561 0-1.6371 0.73145-3.3438 0.76628-1.7067 2.7865-3.9359 2.055-2.1944 5.7819-5.0505l0.10449-0.80111q0.24382-1.2887 0.5573-3.6921-0.69662 2.5078-1.9505 3.8314-1.2539 1.2887-2.6472 1.2887-1.5674 0-2.5775-1.4281-0.97527-1.4629-0.97527-3.6224 0-2.6123 0.34831-4.7718 0.34831-2.1944 1.1494-4.6325 0.34831-1.0449 0.97527-1.4977t1.9854-0.4528q0.76628 0 1.0449 0.24382 0.31348 0.24382 0.31348 0.73145 0 0.27865-0.38314 1.8809-0.34831 1.2887-0.5573 2.3337-0.27865 1.4281-0.48763 2.7516-0.20899 1.2887-0.20899 2.1247 0 1.3236 0.73145 1.3236 0.52246 0 1.2887-1.0449 0.80111-1.0449 1.6719-3.1696 0.90561-2.1247 1.7416-5.2246 0.27865-1.0449 0.83594-1.4977 0.59213-0.4528 1.7416-0.4528zm-9.6134 28.701q0.87078 0 1.9505-2.0202t2.1595-6.7224q-2.682 2.264-3.9011 4.1101-1.1843 1.8809-1.1843 3.2741 0 0.59213 0.20899 0.97527 0.24382 0.38314 0.76628 0.38314z"/>
  <path d="m122.41 30.138q0.4528 0 0.69662 0.4528t0.24382 1.1494q0 0.87078-0.24382 1.3584-0.24382 0.4528-0.76628 0.62696-2.0899 0.73145-4.5977 0.83594-0.69662 2.891-2.6472 4.6674-1.9157 1.7764-4.2494 1.7764-3.5179 0-5.1202-2.682t-1.6022-7.7673q0-4.4932 1.1146-9.7527 1.1146-5.2943 3.2393-8.9864 2.1595-3.7269 5.1202-3.7269 1.6022 0 2.5775 1.3932 0.97527 1.3584 0.97527 3.5528 0 2.8561-1.0798 5.6775-1.0798 2.8213-3.5876 5.9213 2.3337 0.17416 3.7966 1.9505 1.4629 1.7416 1.7416 4.319 1.6371-0.10449 3.9011-0.69662 0.20898-0.06966 0.48763-0.06966zm-9.6134-18.6q-0.69662 0-1.5326 2.0899-0.80111 2.055-1.4977 5.6078-0.69662 3.5528-1.0449 7.7673 2.2988-4.2146 3.6572-7.419 1.3932-3.2393 1.3932-5.7471 0-1.1146-0.27865-1.7067-0.24381-0.59213-0.69662-0.59213zm-1.8112 25.775q1.0798 0 1.9157-0.90561 0.83594-0.90561 1.1146-2.6123-1.0798-0.73145-1.6719-1.9157-0.5573-1.1843-0.5573-2.5078 0-0.48763 0.13933-1.3236h-0.10449q-1.4281 0-2.4033 1.4281-0.94044 1.3932-0.94044 3.7617 0 1.9854 0.73145 3.0303 0.76628 1.0449 1.7764 1.0449z"/>
  <path d="m133.56 33.064q0.4528 0 0.69662 0.41797 0.27865 0.41797 0.27865 1.1494 0 1.3932-0.66179 2.1595-1.4977 1.846-3.2741 3.0303-1.7416 1.1843-3.9707 1.1843-3.0651 0-4.5629-2.7865-1.4629-2.7865-1.4629-7.21 0-4.2494 1.0798-9.683 1.1146-5.4336 3.2393-9.3347 2.1595-3.9011 5.1202-3.9011 1.6719 0 2.6123 1.5674 0.97527 1.5326 0.97527 4.4235 0 4.1449-2.2988 9.6134-2.2988 5.4685-6.2348 10.832 0.24382 1.4281 0.80112 2.055 0.55729 0.59213 1.4629 0.59213 1.4281 0 2.5078-0.80111 1.0798-0.83594 2.7516-2.8213 0.41797-0.48763 0.94044-0.48763zm-4.2842-21.526q-0.80112 0-1.8112 2.891t-1.7764 7.1752q-0.76628 4.2842-0.83594 8.2201 2.473-4.0752 3.9359-8.1505 1.4629-4.1101 1.4629-7.4887 0-2.6472-0.97526-2.6472z"/>
  <path d="m149.48 30.138q0.45281 0 0.69662 0.4528 0.24382 0.4528 0.24382 1.1494 0 1.6719-1.0101 1.9854-2.0899 0.73145-4.5977 0.83594-0.66179 2.9258-2.6123 4.7022-1.9505 1.7416-4.4235 1.7416-2.0899 0-3.5876-1.0101-1.4629-1.0101-2.2292-2.682t-0.76628-3.6224q0-2.6472 1.0101-4.7022 1.0101-2.0899 2.7865-3.2393 1.7764-1.1843 3.9359-1.1843 2.6472 0 4.2494 1.846 1.6371 1.8112 1.9157 4.4932 1.637-0.10449 3.9011-0.69662 0.27865-0.06966 0.48763-0.06966zm-11.425 7.1752q1.1146 0 1.9157-0.90561 0.83594-0.90561 1.1146-2.6123-1.0798-0.73145-1.6719-1.9157-0.55729-1.1843-0.55729-2.5078 0-0.5573 0.10449-1.1146h-0.17415q-1.3932 0-2.3337 1.3584-0.90561 1.3236-0.90561 3.7617 0 1.9157 0.73145 2.9258 0.76629 1.0101 1.7764 1.0101z"/>
  <path d="m159.23 25.749q0.87077 0 1.2191 0.27865 0.38314 0.24382 0.38314 1.0101 0 0.41797-0.0348 0.66179-0.13932 1.0798-0.87077 5.573-0.52247 3.0303-0.66179 4.0056-1.3236 8.9864-3.5876 14.176-2.2292 5.2246-5.9909 5.2246-1.7764 0-2.891-1.1146-1.1146-1.0798-1.1146-2.8561 0-2.473 1.9505-5.3291 1.9505-2.8213 7.3145-6.9662l0.20899-1.3584q-0.59213 0.94044-1.5674 1.4629-0.94043 0.48763-1.8809 0.48763-2.1595 0-3.4483-1.5674t-1.2888-4.1101q0-2.7865 1.2888-5.2595 1.2888-2.5078 3.4134-4.0056 2.1595-1.5326 4.5629-1.5326 0.76628 0 1.0101 0.31348 0.27865 0.27865 0.4528 1.0449 0.66179-0.13932 1.5326-0.13932zm-6.2696 11.738q0.80111 0 1.5326-0.97527t1.0449-2.7865l1.1146-5.9561q-1.4281 0.03483-2.6472 1.1146-1.2191 1.0449-1.9505 2.7865t-0.73145 3.6921q0 1.0798 0.41797 1.6022 0.4528 0.52246 1.2191 0.52246zm-2.891 15.813q0.87078 0 1.9505-2.0899 1.1146-2.0899 2.1247-6.6527-2.682 2.2988-3.8662 4.1449-1.1843 1.846-1.1843 3.2393 0 0.59213 0.20899 0.97527 0.24382 0.38314 0.76628 0.38314z"/>
 </g>
</svg>
