<?xml version="1.0" encoding="UTF-8"?>
<svg width="884.92" height="188.32" version="1.1" viewBox="0 0 234.13 49.825" xmlns="http://www.w3.org/2000/svg" xmlns:cc="http://creativecommons.org/ns#" xmlns:dc="http://purl.org/dc/elements/1.1/" xmlns:rdf="http://www.w3.org/1999/02/22-rdf-syntax-ns#">
 <metadata>
  <rdf:RDF>
   <cc:Work rdf:about="">
    <dc:format>image/svg+xml</dc:format>
    <dc:type rdf:resource="http://purl.org/dc/dcmitype/StillImage"/>
    <dc:title/>
   </cc:Work>
  </rdf:RDF>
 </metadata>
 <g stroke-width=".26458">
  <g transform="matrix(1.0287 0 0 1.0287 -15.826 -7.9203)" fill="#1c1c1c" aria-label="me. ImPrankster">
   <g fill="#1c1c1c">
    <circle transform="translate(4.8452 -.022086)" cx="109.09" cy="23.316" r="2.8719" fill-rule="evenodd" stroke-linecap="round" stroke-linejoin="round" stroke-width="1.4272"/>
    <g stroke-width=".26458">
     <path d="m68.319 8.0393 0.18708 2.1599q1.9558-2.5001 5.2552-2.5001 3.4865 0 4.711 2.7722 1.8708-2.7722 5.4083-2.7722 5.5954 0 5.7485 6.7689v11.973h-5.7485v-11.616q0-1.4116-0.4762-2.0579-0.4762-0.64628-1.7347-0.64628-1.7007 0-2.5341 1.5136l0.01701 0.2381v12.568h-5.7485v-11.582q0-1.4456-0.4592-2.0919-0.4592-0.64628-1.7517-0.64628-1.6497 0-2.5171 1.5136v12.806h-5.7315v-18.402z"/>
     <path d="m100.62 26.781q-4.2348 0-6.8539-2.5171-2.6191-2.5341-2.6191-6.5818v-0.4762q0-2.8232 1.0374-4.9831 1.0545-2.1599 3.0613-3.3334 2.0069-1.1905 4.762-1.1905 3.8777 0 6.1226 2.415 2.245 2.398 2.245 6.7009v2.228h-11.395q0.30613 1.5477 1.3436 2.432 1.0374 0.88438 2.6871 0.88438 2.7212 0 4.2518-1.9048l2.6191 3.0953q-1.0715 1.4796-3.0443 2.364-1.9558 0.86737-4.2178 0.86737zm-0.64628-14.66q-2.5171 0-2.9933 3.3334h5.7825v-0.44219q0.034-1.3776-0.6973-2.1259-0.73131-0.76533-2.0919-0.76533z"/>
     <path d="m69.527 54.329h-5.9525v-24.763h5.9525z"/>
     <path d="m77.11 35.927 0.18708 2.1599q1.9558-2.5001 5.2552-2.5001 3.4865 0 4.711 2.7722 1.8708-2.7722 5.4083-2.7722 5.5954 0 5.7485 6.7689v11.973h-5.7485v-11.616q0-1.4116-0.4762-2.0579-0.4762-0.64628-1.7347-0.64628-1.7007 0-2.5341 1.5136l0.01701 0.2381v12.568h-5.7485v-11.582q0-1.4456-0.4592-2.0919-0.4592-0.64628-1.7518-0.64628-1.6497 0-2.5171 1.5136v12.806h-5.7315v-18.402z"/>
     <path d="m106.74 45.927v8.4016h-5.9696v-24.763h9.8812q2.8402 0 5.0172 1.0545 2.1939 1.0374 3.3844 2.9763 1.2075 1.9218 1.2075 4.3709 0 3.6226-2.6021 5.7995-2.5851 2.1599-7.109 2.1599zm0-4.609h3.9117q1.7348 0 2.6361-0.86737 0.91839-0.86737 0.91839-2.449 0-1.7347-0.9354-2.7722t-2.5511-1.0545h-3.9797z"/>
     <path d="m132.59 41.114-1.8878-0.13606q-2.7042 0-3.4695 1.7007v11.65h-5.7314v-18.402h5.3743l0.18708 2.364q1.4456-2.7042 4.0307-2.7042 0.9184 0 1.5987 0.20409z"/>
     <path d="m143.85 54.329q-0.30613-0.56124-0.54423-1.6497-1.5817 1.9899-4.4219 1.9899-2.6021 0-4.4219-1.5647-1.8198-1.5817-1.8198-3.9627 0-2.9933 2.2109-4.5239 2.211-1.5307 6.4288-1.5307h1.7688v-0.96942q0-2.5341-2.1939-2.5341-2.0409 0-2.0409 2.0069h-5.7314q0-2.6701 2.262-4.3369 2.279-1.6667 5.7995-1.6667 3.5205 0 5.5614 1.7177 2.0409 1.7177 2.0919 4.711v8.1465q0.034 2.5341 0.78233 3.8777v0.28912zm-3.5885-3.7416q1.0714 0 1.7688-0.4592 0.71431-0.4592 1.0204-1.0374v-2.9423h-1.6667q-2.9933 0-2.9933 2.6872 0 0.78233 0.52722 1.2755 0.52723 0.4762 1.3436 0.4762z"/>
     <path d="m156.04 35.927 0.18708 2.1599q1.9048-2.5001 5.2552-2.5001 2.8742 0 4.2858 1.7177 1.4286 1.7177 1.4796 5.1702v11.854h-5.7485v-11.616q0-1.3946-0.56124-2.0409-0.56124-0.66328-2.0409-0.66328-1.6837 0-2.5001 1.3266v12.994h-5.7315v-18.402z"/>
     <path d="m176.09 47.475-1.6157 1.6157v5.2382h-5.7314v-26.14h5.7314v13.878l0.57825-0.76533 4.3198-5.3743h6.8709l-6.4458 7.5682 6.8709 10.834h-6.5648z"/>
     <path d="m196.19 49.159q0-0.73131-0.76533-1.1735t-2.9082-0.91839q-2.1429-0.4762-3.5375-1.2415-1.3946-0.78234-2.1259-1.8878-0.73131-1.1055-0.73131-2.5341 0-2.5341 2.0919-4.1668 2.0919-1.6497 5.4764-1.6497 3.6396 0 5.8505 1.6497 2.2109 1.6497 2.2109 4.3369h-5.7484q0-2.2109-2.33-2.2109-0.90139 0-1.5136 0.51022-0.61226 0.49321-0.61226 1.2415 0 0.76533 0.74832 1.2415t2.381 0.78234q1.6497 0.30613 2.8912 0.73131 4.1498 1.4286 4.1498 5.1192 0 2.5171-2.245 4.0988-2.228 1.5817-5.7825 1.5817-2.364 0-4.2178-0.85036-1.8538-0.85036-2.8912-2.313-1.0374-1.4626-1.0374-3.0783h5.3573q0.034 1.2755 0.85037 1.8708 0.81635 0.57825 2.0919 0.57825 1.1735 0 1.7518-0.4762 0.59526-0.4762 0.59526-1.2415z"/>
     <path d="m209.88 31.352v4.575h3.0273v3.9797h-3.0273v8.4186q0 1.0374 0.37416 1.4456 0.37416 0.40817 1.4796 0.40817 0.85036 0 1.4286-0.10204v4.0988q-1.5477 0.49321-3.2314 0.49321-2.9593 0-4.3709-1.3946-1.4116-1.3946-1.4116-4.2348v-9.1329h-2.347v-3.9797h2.347v-4.575z"/>
     <path d="m222.88 54.669q-4.2348 0-6.8539-2.5171-2.6191-2.5341-2.6191-6.5818v-0.4762q0-2.8232 1.0374-4.9831 1.0544-2.1599 3.0613-3.3334 2.0069-1.1905 4.762-1.1905 3.8777 0 6.1226 2.415 2.245 2.398 2.245 6.7009v2.228h-11.395q0.30613 1.5477 1.3436 2.432 1.0374 0.88438 2.6872 0.88438 2.7212 0 4.2518-1.9048l2.6191 3.0953q-1.0715 1.4796-3.0443 2.364-1.9558 0.86737-4.2178 0.86737zm-0.64628-14.66q-2.5171 0-2.9933 3.3334h5.7825v-0.44219q0.034-1.3776-0.6973-2.1259-0.73131-0.76533-2.0919-0.76533z"/>
     <path d="m242.88 41.114-1.8878-0.13606q-2.7042 0-3.4695 1.7007v11.65h-5.7314v-18.402h5.3743l0.18708 2.364q1.4456-2.7042 4.0307-2.7042 0.9184 0 1.5987 0.20409z"/>
    </g>
   </g>
  </g>
 </g>
 <g transform="translate(-12.348 -7.7212)" fill="#1c1c1c">
  <path d="m25.514 36.357h-13.167v-9.3552h38.807v15.485q0 4.4511-1.6525 7.8626-1.6258 3.4382-4.6643 5.3039-3.0118 1.8923-6.8498 1.8923-5.6771 0-9.0886-4.0779-3.3849-4.0512-3.3849-11.141zm7.2229 0v6.1302q0 2.7186 1.3593 4.1312 1.3593 1.4393 3.838 1.4393 2.7186 0 4.3444-1.4659 1.6258-1.4659 1.6525-3.9979v-6.2368z" stroke-width=".41464"/>
  <rect x="12.348" y="8.0712" width="9.3552" height="9.3552" fill-rule="evenodd" stroke-linecap="round" stroke-linejoin="round" stroke-width="1.5397"/>
  <rect x="41.799" y="14.672" width="9.3552" height="9.3552" fill-rule="evenodd" stroke-linecap="round" stroke-linejoin="round" stroke-width="1.5397"/>
 </g>
</svg>
